<svg xmlns="http://www.w3.org/2000/svg" width="1600" height="900" viewBox="0 0 1600 900">
  <defs>
    <linearGradient id="g1" x1="0" y1="0" x2="1" y2="1">
      <stop offset="0%" stop-color="#111" />
      <stop offset="100%" stop-color="#1b1b1b" />
    </linearGradient>
    <linearGradient id="g2" x1="0" y1="0" x2="1" y2="1">
      <stop offset="0%" stop-color="#e0c96a" />
      <stop offset="100%" stop-color="#b18c33" />
    </linearGradient>
    <linearGradient id="g3" x1="0" y1="0" x2="1" y2="1">
      <stop offset="0%" stop-color="#2b2b2b" />
      <stop offset="100%" stop-color="#0f0f0f" />
    </linearGradient>
  </defs>
  <rect width="1600" height="900" fill="url(#g1)" />
  <rect x="100" y="120" width="1400" height="660" rx="40" fill="#080808" opacity=".9" />
  <path d="M160 170 h1280 v620 h-1280 z" fill="none" stroke="#c9a44a" stroke-width="16" opacity=".65" />
  <rect x="210" y="210" width="340" height="160" rx="30" fill="url(#g3)" />
  <rect x="250" y="240" width="260" height="90" rx="20" fill="#161616" />
  <circle cx="320" cy="280" r="10" fill="#8f8f8f" />
  <rect x="270" y="340" width="220" height="46" rx="18" fill="url(#g3)" />
  <rect x="310" y="314" width="36" height="160" rx="16" fill="#111" />
  <rect x="342" y="314" width="36" height="160" rx="16" fill="#111" />
  <path d="M220 330 c90 -40 150 -40 220 20" fill="none" stroke="#c9a44a" stroke-width="10" opacity=".5" />
  <path d="M260 430 c70 40 160 40 240 -10" fill="none" stroke="#f4e7a6" stroke-width="8" opacity=".3" />
  <rect x="1080" y="190" width="285" height="110" rx="24" fill="url(#g3)" />
  <rect x="1110" y="215" width="235" height="60" rx="18" fill="#181818" />
  <line x1="1170" y1="240" x2="1290" y2="240" stroke="#5a5a5a" stroke-width="8" />
  <line x1="1170" y1="270" x2="1290" y2="270" stroke="#5a5a5a" stroke-width="8" />
  <rect x="1040" y="360" width="315" height="100" rx="26" fill="#121212" />
  <path d="M1060 380 h270" stroke="#2e2e2e" stroke-width="14" />
  <path d="M1060 405 h270" stroke="#2e2e2e" stroke-width="14" />
  <path d="M1060 430 h270" stroke="#2e2e2e" stroke-width="14" />
  <path d="M1060 455 h270" stroke="#2e2e2e" stroke-width="14" />
  <path d="M1060 480 h270" stroke="#2e2e2e" stroke-width="14" />
  <rect x="420" y="460" width="440" height="100" rx="28" fill="#111" opacity=".95" />
  <rect x="470" y="485" width="360" height="62" rx="18" fill="#1b1b1b" />
  <path d="M520 525 h220" stroke="#7b7b7b" stroke-width="8" />
  <path d="M520 550 h220" stroke="#7b7b7b" stroke-width="8" />
  <path d="M520 575 h220" stroke="#7b7b7b" stroke-width="8" />
  <ellipse cx="400" cy="525" rx="24" ry="14" fill="#2d2d2d" opacity=".8" />
  <path d="M1080 610 c40 -35 100 -40 170 5" fill="none" stroke="#b4974d" stroke-width="12" opacity=".45" />
  <path d="M960 240 c80 35 140 90 150 180" fill="none" stroke="#c9a44a" stroke-width="12" opacity=".25" />
  <circle cx="860" cy="220" r="110" fill="none" stroke="#c9a44a" stroke-width="8" opacity=".2" />
  <text x="50%" y="45%" dominant-baseline="middle" text-anchor="middle" font-family="Cinzel,serif" font-size="96" fill="#f4e7a6" letter-spacing="12">IMPERIUM</text>
  <text x="50%" y="54%" dominant-baseline="middle" text-anchor="middle" font-family="Montserrat, sans-serif" font-size="36" fill="#f5e3a7">Barbearia Premium</text>
</svg>
